<?xml version="1.0" encoding="UTF-8"?>
<svg width="1200pt" height="1200pt" version="1.1" viewBox="0 0 1200 1200" xmlns="http://www.w3.org/2000/svg">
 <defs>
  <clipPath id="a">
   <path d="m222.14 395h755.71v413h-755.71z"/>
  </clipPath>
 </defs>
 <g clip-path="url(#a)">
  <path d="m675.57 451.44c11.941-11.895 26.008-25.902 42.195-42.023 8.9102-8.8828 20.777-13.777 33.383-13.777 12.594 0 24.461 4.8945 33.371 13.777l186.43 185.68c6.7227 6.7266 8.7578 16.824 5.1133 25.625-3.6602 8.7539-12.254 14.496-21.82 14.496h-28.043v121.35c0 48.121-39.633 51.016-88.332 51.016h-18.516-123.25-24.355c-49.652 0-91.637-3.6992-91.637-51.016v-121.35h-32.074c-9.5586 0-18.16-5.7422-21.809-14.496-3.6562-8.8008-1.6523-18.898 5.1016-25.625l1.5742-1.5664c0.89062-1.3984 1.9453-2.7188 3.1562-3.9219l44.438-44.223c-0.21484-1.3047-0.38672-2.6094-0.38672-4.082v-64.836c0-12.789 7.7109-23.773 18.762-28.598 4.4531-2.5312 9.6094-3.9766 15.105-3.9766h0.18359c16.141 0 29.172 12.457 30.293 28.234 0 6.3516 0.21484 9.3086 0.64453 8.8789 0.64844-0.64062 3.6602-3.6445 4.75-4.7305 6.8711-6.8398 15.312-15.25 25.328-25.227zm-78.418 356.14h-52.191-24.355c-49.652 0-91.637-3.6992-91.637-51.016v-121.35h-32.074c-9.5586 0-18.16-5.7422-21.809-14.496-3.6562-8.8008-1.6523-18.898 5.1016-25.625l49.281-49.043c-0.26562-1.5273-0.5-3.0273-0.5-4.75v-64.836c0-17.246 14.02-31.211 31.344-31.211h0.1875c3.1523 0 6.1914 0.46484 9.0508 1.3242 12.199 3.668 21.168 14.566 22.102 27.711 0 6.1016 0.19141 9.1602 0.57812 9.1719 0.027344 0.003906 0.054687-0.011719 0.082031-0.039063 0.66797-0.66406 3.7656-3.75 4.8867-4.8633 7.332-7.3047 16.41-16.344 27.227-27.121 11.945-11.895 26.008-25.902 42.199-42.023 8.9062-8.8828 20.773-13.777 33.379-13.777 12.598 0 24.465 4.8945 33.371 13.777l34.164 34.023c-5.3594 5.3359-10.902 10.859-16.637 16.57-6.4453-15.391-21.609-26.09-39.258-26.09h-0.1875c-23.574 0-42.684 19.027-42.684 42.547v64.836c0 0.17969 0.003906 0.35937 0.003906 0.53516l-45.445 45.227c-10.012 9.9688-12.992 24.957-7.5664 38.016 5.4141 12.996 18.152 21.469 32.273 21.469h20.734v110.02c0 24.387 9.875 41.285 28.379 51.016zm-82.453-365.83c-5.5078 5.4805-11.215 11.168-17.129 17.055-6.3438-15.145-21.266-25.672-38.633-25.672h-0.18359c-23.199 0-42.004 18.723-42.004 41.867v63.809c0 0.17969 0 0.35156 0.003906 0.52344l-44.727 44.512c-9.8516 9.8125-12.789 24.559-7.4453 37.414 5.3242 12.785 17.863 21.129 31.758 21.129h20.41v108.27c0 26.422 11.773 43.914 33.695 52.891 3.9375 1.6133 8.0547 2.9453 12.508 4.0352h-69.133-24.355c-49.652 0-91.637-3.6992-91.637-51.016v-121.35h-32.074c-9.5586 0-18.16-5.7422-21.809-14.496-3.6602-8.8008-1.6523-18.898 5.1016-25.625l49.281-49.043c-0.26562-1.5273-0.5-3.0273-0.5-4.75v-64.836c0-17.246 14.02-31.211 31.344-31.211h0.1875c16.598 0 30 12.809 31.148 29.035 0 6.5312 0.22266 9.5742 0.66406 9.1328 0.66406-0.66406 3.7656-3.75 4.8828-4.8633 15.43-15.367 38.57-38.414 69.426-69.145 8.9062-8.8828 20.777-13.777 33.383-13.777 12.594 0 24.461 4.8945 33.371 13.777z"/>
 </g>
</svg>
