<?xml version="1.0" encoding="UTF-8"?>
<svg width="1200pt" height="1200pt" version="1.1" viewBox="0 0 1200 1200" xmlns="http://www.w3.org/2000/svg">
 <g>
  <path d="m158.4 1080c-10.801 37.199 9.6016 76.801 46.801 87.602 7.1992 2.3984 13.199 2.3984 20.398 2.3984 30 0 57.602-19.199 67.199-50.398l61.199-202.8-114-106.8z"/>
  <path d="m805.2 43.199-94.801 66h-117.6c-12 0-20.398 9.6016-20.398 20.398v84c0 12 9.6016 20.398 20.398 20.398h25.199l10.801 58.801c-12 4.8008-21.602 13.199-28.801 25.199l-44.398 79.199-44.398-28.801c-26.398-16.801-56.398-27.602-87.602-28.801l-70.801-4.8008c-21.602-1.1992-44.398 4.8008-62.398 16.801-4.8008 2.3984-8.3984 4.8008-12 8.3984-8.3984 7.1992-14.398 14.398-19.199 24-9.6016 15.602-14.398 32.398-15.602 50.398l-14.398 223.2c-2.3984 21.602 6 43.199 21.602 57.602l199.2 184.8 27.602 207.6c4.8008 34.801 34.801 61.199 69.602 61.199 3.6016 0 6 0 9.6016-1.1992 38.398-4.8008 66-40.801 60-79.199l-31.199-232.8c-2.3984-15.602-9.6016-31.199-21.602-42l-133.2-122.39c0-1.1992 1.1992-3.6016 1.1992-4.8008l36-204 76.801 49.199c13.199 8.3984 30 12 45.602 7.1992 15.602-3.6016 28.801-14.398 37.199-27.602l75.602-133.2c14.398-26.398 7.1992-57.602-15.602-75.602l-12-67.199h36l94.801 66c13.199 9.6016 32.398 0 32.398-16.801v-224.39c-1.1992-16.801-20.402-26.398-33.602-16.801z"/>
  <path d="m906 123.6c-6-9.6016-19.199-12-27.602-4.8008l-1.1992 1.1992c-6 6-8.3984 14.398-3.6016 21.602 4.8008 8.3984 8.3984 19.199 8.3984 30 0 10.801-2.3984 21.602-8.3984 30-3.6016 7.1992-2.3984 15.602 3.6016 21.602l1.1992 1.1992c8.3984 7.1992 21.602 6 27.602-4.8008 8.3984-14.398 13.199-31.199 13.199-48 0-16.801-4.8008-33.602-13.199-48z"/>
  <path d="m952.8 80.398c-6-8.3984-19.199-10.801-26.398-3.6016l-2.4023 1.2031c-7.1992 6-8.3984 16.801-2.3984 24 14.398 20.398 22.801 44.398 22.801 70.801 0 26.398-8.3984 50.398-22.801 70.801-4.8008 7.1992-3.6016 18 2.3984 24l1.1992 1.1992c8.3984 7.1992 20.398 6 26.398-3.6016 18-26.398 28.801-57.602 28.801-92.398 1.2031-34.801-9.5977-66-27.598-92.402z"/>
  <path d="m998.4 37.199c-6-8.3984-19.199-9.6016-26.398-2.3984l-1.1992 1.1992c-7.1992 6-7.1992 16.801-2.3984 24 24 31.199 37.199 70.801 37.199 112.8s-14.398 81.602-37.199 112.8c-6 7.1992-4.8008 18 2.3984 24l1.1992 1.1992c8.3984 7.1992 20.398 6 26.398-2.3984 28.801-37.199 45.602-84 45.602-135.6 0-51.602-16.801-98.402-45.602-135.6z"/>
  <path d="m522 180c0 68.262-55.336 123.6-123.6 123.6-68.262 0-123.6-55.34-123.6-123.6s55.336-123.6 123.6-123.6c68.266 0 123.6 55.34 123.6 123.6"/>
 </g>
</svg>
