<?xml version="1.0" encoding="UTF-8"?>
<svg width="1200pt" height="1200pt" version="1.1" viewBox="0 0 1200 1200" xmlns="http://www.w3.org/2000/svg">
 <path d="m488.49 491.55c0 25.934-20.98 46.914-46.68 46.914-25.934 0-46.914-20.98-46.914-46.914 0-56.582 22.867-107.74 59.883-144.75 37.016-37.016 88.172-59.883 144.75-59.883s107.74 22.867 144.75 59.883c37.016 37.016 59.883 88.172 59.883 144.75s-22.867 107.74-59.883 144.75c-26.406 26.406-60.117 45.738-97.84 54.461v20.273c0 25.934-20.98 46.914-46.914 46.914s-46.914-20.98-46.914-46.914v-61.77c0-25.699 20.98-46.68 46.914-46.68 30.648 0 58.469-12.496 78.508-32.535 20.039-20.039 32.535-47.859 32.535-78.508s-12.496-58.469-32.535-78.508c-20.039-20.039-47.859-32.535-78.508-32.535s-58.469 12.496-78.508 32.535c-20.039 20.039-32.535 47.859-32.535 78.508zm106.32 421.3c-25.934 0-46.914-20.746-46.914-46.68 0-25.934 20.98-46.914 46.914-46.914h10.375c25.934 0 46.914 20.98 46.914 46.914 0 25.934-20.98 46.68-46.914 46.68zm5.1875 193.32c139.8 0 266.41-56.582 357.88-148.29 91.711-91.473 148.29-218.07 148.29-357.88s-56.582-266.41-148.29-358.11c-91.473-91.473-218.07-148.29-357.88-148.29s-266.41 56.816-358.11 148.29c-91.473 91.711-148.29 218.31-148.29 358.11s56.816 266.41 148.29 357.88c91.711 91.711 218.31 148.29 358.11 148.29zm424.12-82.043c-108.45 108.68-258.62 175.88-424.12 175.88-165.74 0-315.68-67.191-424.36-175.88-108.45-108.45-175.64-258.62-175.64-424.12 0-165.74 67.191-315.68 175.64-424.36 108.68-108.45 258.62-175.64 424.36-175.64 165.5 0 315.68 67.191 424.12 175.64 108.68 108.68 175.88 258.62 175.88 424.36 0 165.5-67.191 315.68-175.88 424.12z" fill-rule="evenodd"/>
</svg>
