<?xml version="1.0" encoding="UTF-8"?>
<svg width="1200pt" height="1200pt" version="1.1" viewBox="0 0 1200 1200" xmlns="http://www.w3.org/2000/svg">
 <g>
  <path d="m483.75 680c66.25 37.5 176.25 46.25 243.75 0 143.75 3.75 222.5 237.5 227.5 413.75-243.75 7.5-455 8.75-711.25 0 5-175 77.5-405 240-413.75z"/>
  <path d="m957.5 200c-3.75-18.75-60-25-83.75-30-72.5-18.75-252.5-71.25-280-70h-3.75c-58.75 10-230 61.25-266.25 71.25-23.75 6.25-80 15-81.25 31.25s15 18.75 33.75 23.75c45 11.25 86.25 23.75 130 33.75 0 3.75 0 7.5 1.25 11.25-5 12.5-8.75 25-11.25 38.75-3.75 22.5-1.25 116.25 13.75 183.75 10 45 28.75 82.5 60 108.75 37.5 30 83.75 41.25 131.25 41.25s93.75-10 131.25-41.25c30-26.25 48.75-62.5 60-108.75 15-67.5 17.5-162.5 13.75-183.75-2.5-13.75-6.25-26.25-11.25-38.75 1.25-5 2.5-8.75 2.5-13.75 20-5 40-11.25 61.25-16.25v93.75l-13.75 21.25v63.75c11.25 15 43.75 20 58.75 0v-63.75l-16.25-21.25v-101.25c28.75-5 73.75-12.5 70-33.75z"/>
 </g>
</svg>
